<svg xmlns="http://www.w3.org/2000/svg" width="2048" height="2048"><path fill="#fff" d="m1144.201 257.237-255.037 24.415v1050.166l252.34-37.99V846.085l339.194 496.606 265.915-84.14-347.327-477.589 350.047-450.459-271.332-62.383-336.491 450.44zM566.093 513.145a12.94 12.94 0 0 0-7.824 3.743l-100.096 100.08a12.95 12.95 0 0 0-1.899 15.875l117.192 193.015a501 501 0 0 0-49.351 112.367l-215.15 44.751c-5.985 1.24-10.298 6.544-10.298 12.687V1137.2c0 5.986 4.095 11.17 9.863 12.564l208.824 51.043c11.136 46.032 28.392 89.67 51.2 129.777l-120.874 184.32a12.94 12.94 0 0 0 1.69 16.276l100.06 100.079a13.044 13.044 0 0 0 15.911 1.935l189.411-115.035c37.206 21.47 77.328 38.365 119.735 49.823l44.194 212.482c1.243 6.023 6.565 10.3 12.669 10.3h141.555a12.93 12.93 0 0 0 12.565-9.9l52.053-212.92c43.714-11.797 85.058-29.381 123.173-51.827l186.655 122.385a12.935 12.935 0 0 0 16.276-1.65l100.097-100.079a12.904 12.904 0 0 0 1.88-15.875l-68.139-112.297-22.045 6.971a7.61 7.61 0 0 1-8.608-2.98s-43.462-63.624-99.593-145.778C1300.116 1398.14 1163.6 1488.1 1005.95 1488.1c-223.982 0-405.567-181.593-405.567-405.586 0-164.775 98.282-306.485 239.37-369.965V607.917c-25.678 8.983-50.503 19.814-74.08 32.658-.017-.016-.034-.06-.102-.12L574.524 515.153a12.97 12.97 0 0 0-8.434-2.056z" style="stroke-width:42.6667"/></svg>